<?xml version="1.0" encoding="UTF-8" standalone="no"?>
<svg
   xmlns:dc="http://purl.org/dc/elements/1.1/"
   xmlns:cc="http://creativecommons.org/ns#"
   xmlns:rdf="http://www.w3.org/1999/02/22-rdf-syntax-ns#"
   xmlns:svg="http://www.w3.org/2000/svg"
   xmlns="http://www.w3.org/2000/svg"
   xmlns:sodipodi="http://sodipodi.sourceforge.net/DTD/sodipodi-0.dtd"
   xmlns:inkscape="http://www.inkscape.org/namespaces/inkscape"
   version="1.1"
   id="svg2"
   xml:space="preserve"
   width="109.7084"
   height="48.434944"
   viewBox="0 0 109.70839 48.434945"
   sodipodi:docname="tecnm.svg"
   inkscape:version="1.0.2 (e86c870879, 2021-01-15, custom)"><metadata
     id="metadata8"><rdf:RDF><cc:Work
         rdf:about=""><dc:format>image/svg+xml</dc:format><dc:type
           rdf:resource="http://purl.org/dc/dcmitype/StillImage" /><dc:title></dc:title></cc:Work></rdf:RDF></metadata><defs
     id="defs6" /><sodipodi:namedview
     pagecolor="#ffffff"
     bordercolor="#666666"
     borderopacity="1"
     objecttolerance="10"
     gridtolerance="10"
     guidetolerance="10"
     inkscape:pageopacity="0"
     inkscape:pageshadow="2"
     inkscape:window-width="1600"
     inkscape:window-height="837"
     id="namedview4"
     showgrid="false"
     inkscape:zoom="4.7492354"
     inkscape:cx="45.794536"
     inkscape:cy="34.805506"
     inkscape:window-x="-8"
     inkscape:window-y="-8"
     inkscape:window-maximized="1"
     inkscape:current-layer="g10" /><g
     id="g10"
     inkscape:groupmode="layer"
     inkscape:label="ink_ext_XXXXXX"
     transform="matrix(1.3333333,0,0,-1.3333333,0,48.434944)"><path
       d="M 3.13867,32.6988 C 2.52695,32.5516 0.960938,32.032 0.403125,31.7629 v -3.3164 c 0,-0.9496 -0.093359,-0.7344 0.902735,-0.7668 5.37227,-0.1758 8.24687,-0.8992 12.27544,-3.3906 -0.0805,0.9945 -0.4028,1.9636 -0.8813,2.8332 -2.6961,1.9683 -5.23437,2.9379 -8.55664,3.1644 9.41684,2.2492 17.87074,-6.7816 14.73324,-16.1125 -0.7594,0.2024 -2.3133,0.8086 -3.745,-0.4 C 15.8273,11.8406 15.2715,8.81641 12.6832,8.99297 12.7754,8.10156 12.2938,6.89375 10.9867,5.92461 9.16328,4.80742 6.34023,4.42969 4.93789,5.26875 3.1957,4.98633 1.92383,5.50078 0.414063,6.2418 V 4.64727 C 1.22852,4.11133 2.1707,3.81836 3.13867,3.58906 L 3.82617,0.510547 C 3.98984,0.180078 4.28242,0.00234375 4.72383,0 h 4.64805 c 0.39453,0.00273438 0.66642,0.190234 0.84882,0.510547 l 0.6637,3.166793 c 0.614,0.16329 1.2222,0.36446 1.8105,0.60664 l 2.402,-2.11914 c 0.309,-0.14257 0.6301,-0.15703 0.9801,0.1086 l 3.5293,2.61289 c 0.2812,0.23047 0.416,0.5289 0.3726,0.9082 l -1.3176,2.9043 c 0.4,0.49258 0.7696,1.01094 1.1047,1.54847 L 22.9703,9.94531 C 23.3066,9.95 23.5395,10.1641 23.6875,10.609 l 1.323,4.1926 c 0.1149,0.3804 0.0688,0.7035 -0.2175,0.9398 l -2.7907,1.5848 c 0.0356,0.6351 0.0297,1.2734 -0.0156,1.9066 l 2.7684,1.6379 c 0.3027,0.1617 0.3433,0.5063 0.1773,0.9828 l -1.3867,4.1578 c -0.0852,0.4039 -0.3305,0.602 -0.7109,0.6246 l -3.2024,-0.3613 c -0.3441,0.5359 -0.7222,1.0477 -1.1336,1.534 l 1.2727,2.9402 c 0.0933,0.3551 0.0109,0.652 -0.4,0.8918 l -3.5688,2.5449 c -0.3429,0.2375 -0.673,0.3086 -0.98,0.0918 L 12.4563,32.1199 C 11.8617,32.35 11.257,32.5414 10.6379,32.6934 L 9.93828,35.8289 C 9.825,36.1941 9.54727,36.3512 9.06445,36.323 H 4.68867 C 4.17383,36.3059 3.94141,36.0984 3.83594,35.8219 Z M 8.29883,19.2465 h 0.39961 c 0.04101,0 0.075,-0.0344 0.075,-0.0758 v -0.1539 c 0,-0.0414 -0.03399,-0.0754 -0.075,-0.0754 H 8.29883 c -0.0418,0 -0.07539,0.034 -0.07539,0.0754 v 0.1539 c 0,0.0414 0.03359,0.0758 0.07539,0.0758 m 1.04492,6.6906 c 0.66875,-0.1789 1.06645,-0.866 0.88755,-1.5348 -0.1786,-0.6699 -0.86567,-1.0671 -1.53482,-0.8882 -0.66835,0.1785 -1.06601,0.866 -0.88789,1.5347 0.17891,0.6688 0.86602,1.0672 1.53516,0.8883 M 9.61328,25.4113 C 9.81406,25.3582 9.93359,25.152 9.88008,24.9512 9.82539,24.75 9.61992,24.6309 9.41914,24.6844 c -0.20078,0.0535 -0.32031,0.2597 -0.26641,0.4605 0.05352,0.2008 0.26016,0.3196 0.46055,0.2664 M 8.49883,20.002 C 9,20.002 9.40625,19.5957 9.40625,19.0938 9.40625,18.5926 9,18.1871 8.49883,18.1867 c -0.50156,4e-4 -0.90781,0.4059 -0.90781,0.9071 0,0.5019 0.40625,0.9082 0.90781,0.9082 m 0,-0.4469 c 0.2543,0 0.46015,-0.2071 0.46015,-0.4613 0,-0.254 -0.20585,-0.4602 -0.46015,-0.4602 -0.25469,0 -0.46133,0.2062 -0.46133,0.4602 0,0.2542 0.20664,0.4613 0.46133,0.4613 m 2.38907,5.5035 c 0.907,-0.384 1.8457,-0.7969 2.7098,-1.2617 -0.0036,-0.1957 -0.0289,-0.4012 -0.0446,-0.5989 -0.0656,-0.4785 -0.2179,-0.9625 -0.3433,-1.4296 -1.3375,0.5816 -3.62894,0.6671 -5.06253,0.2699 -0.99571,0.5262 -1.55664,1.6543 -1.34063,2.7902 0.025,-0.0078 0.22344,-0.066 0.33203,-0.0984 0.03711,-0.9934 0.86602,-1.7867 1.88281,-1.7867 1.04062,0 1.88482,0.8312 1.88482,1.8566 0,0.0879 -0.0067,0.1742 -0.0184,0.2586 M 9.83789,19.1293 c -0.01523,0.8309 -0.64726,1.3059 -1.42539,1.4516 -0.81406,0.1527 -1.75859,0.1773 -2.35508,0.1203 1.66836,1.3621 5.09848,1.3965 6.94458,0.6566 -1.3872,-0.0191 -2.7122,-0.898 -3.16411,-2.2285 M 0.496875,26.427 C 0.335156,26.441 0.302344,27.2184 0.523438,27.2133 3.09492,27.1504 5.27617,26.9918 7.78672,26.2031 7.48359,25.9438 7.26563,25.5898 7.17891,25.1887 4.96602,25.9453 2.8,26.2285 0.496875,26.427 M 0.520313,25.0598 C 0.325391,25.0906 0.325,26.0484 0.505859,26.0246 2.51172,25.7629 4.40625,25.5555 6.3668,24.9777 6.28086,24.573 6.2793,24.1684 6.35117,23.7824 4.41797,24.352 2.50273,24.7441 0.520313,25.0598 m 0,-1.7282 C 0.357422,23.3801 0.254297,24.5773 0.559766,24.5238 2.56445,24.1672 4.51484,23.8613 6.48242,23.302 6.73281,22.609 7.07813,22.2359 7.45039,21.8113 6.31055,21.402 2.21016,22.8289 0.520313,23.3316 M 0.562109,20.4727 C 0.400781,20.4613 0.0648438,22.8828 0.673438,22.7125 2.58125,22.1805 4.56641,21.5867 6.48281,21.375 6.12539,21.1766 5.80703,20.95 5.53477,20.7012 4.87031,20.7086 4.21289,20.6992 3.5625,20.6738 2.56211,20.634 1.56133,20.5473 0.562109,20.4727 M 0.596094,18.7855 C 0.251953,18.7766 0.264453,20.0309 0.585938,20.0691 3.09609,20.368 5.33984,20.4004 7.79297,20.2336 7.07188,19.7859 6.94531,18.7871 7.52539,18.1738 5.29258,18.6766 2.88594,18.848 0.596094,18.7855 M 0.403125,16.298 0.398047,18.0684 c -3.91e-4,0.1504 0.094141,0.2429 0.184766,0.2539 1.260157,0.1593 2.789847,0.0656 4.075387,-0.061 L 4.75195,18.252 C 3.45313,17.7199 1.53008,16.5797 0.718359,16.0598 0.6125,16.0074 0.517578,16.0156 0.445703,16.0684 0.376953,16.118 0.403125,16.2125 0.403125,16.298 M 10.2156,16.0672 c -0.54372,0.4105 -1.05037,1.166 -1.26833,1.7641 0.32929,0.1152 0.60156,0.3625 0.75468,0.6734 -0.07539,-0.7168 0.10391,-1.4809 0.51715,-2.109 0.0454,-0.0695 0.0907,-0.1394 0.1446,-0.2023 0.1558,-0.1817 0.0453,-0.2715 -0.1481,-0.1262 M 4.51172,6.26914 C 3.06641,6.17695 0.544922,6.33477 0,7.98164 1.60352,11.5828 3.58672,15.0188 6.08125,18.0789 6.27227,18.0488 6.46289,18.0168 6.65352,17.9816 5.0375,14.166 4.57773,10.3918 4.51172,6.26914 M 0.674219,11.1449 c -0.478906,-0.309 -1.057032,3.4778 0,4.2676 1.165231,0.809 2.275781,1.5063 3.538671,2.2992 l 0.81914,0.5094 C 5.20977,18.2008 5.38711,18.1789 5.56445,18.1543 5.41328,17.9863 5.10547,17.6387 5.05078,17.5781 3.52266,15.8957 1.7582,12.9047 0.674219,11.1449 M 14.7297,21.6797 c 0.3633,-0.1262 -0.0711,-1.3274 -0.3356,-1.2567 -0.2839,0.0375 -0.5476,0.0122 -0.7617,-0.1707 0.1871,-0.3933 0.6332,-1.3539 0.7778,-1.9933 0.0539,-0.2375 0.1207,-0.807 -0.1473,-0.9656 -0.1852,-0.1094 -0.5031,-0.0805 -0.9348,-0.1309 l -0.0625,-0.448 c 0.0309,-0.0625 0.1121,-0.0872 0.1074,-0.1321 -0.005,-0.0621 -0.1484,-0.316 -0.4378,-0.3027 0.0398,-0.15 0.1461,-0.2152 0.1066,-0.4465 -0.0246,-0.1422 -0.291,-0.1641 -0.4695,-0.259 -0.1758,-0.0937 -0.0934,-0.1496 -0.1993,-0.1594 -0.021,0.004 -0.0449,0.0079 -0.0707,0.0122 -2.50855,0.4398 -2.59644,3.6085 -0.7164,4.8218 l 0.5754,-0.189 c 0.161,-0.0524 0.1453,-0.0629 -0.0332,-0.1219 -0.0722,-0.0242 -0.15,-0.0391 -0.2273,-0.0535 -0.2004,-0.0395 -0.2192,-0.036 -0.0133,-0.1078 0.2391,-0.0836 0.5234,-0.1379 0.6969,-0.2008 0.0898,-0.032 0.0863,-0.0617 0.1539,0.0316 0.073,0.0989 0.0746,0.2184 0.0203,0.3543 0.1254,-0.0035 0.2375,0.011 0.323,0.0625 0.1813,0.1071 0.1207,0.1731 -0.0668,0.1629 -0.1234,-0.007 -0.25,-0.0473 -0.3664,-0.0137 l -0.7996,0.2262 c 0.3055,0.2695 0.9215,0.5567 1.5977,0.5129 l 0.2969,1.1105 z M 12.7824,14.832 c 0.7625,-0.6511 1.9156,-0.173 1.2867,-0.65 -2.0644,-1.5652 -5.10074,1.1586 -5.50855,3.4407 0.09179,-0.0039 0.18242,-0.0043 0.27109,-4e-4 0.42344,-0.9231 0.55469,-1.2891 1.44216,-1.9582 0.491,-0.3692 0.9485,-0.5395 1.6032,-0.5973 0.5457,-0.0477 0.4668,0.1398 0.9054,-0.2348 m 5.1211,8.0446 c 0.5059,-1.2918 0.4512,-3.0496 -0.6945,-3.7582 -0.3973,-0.2446 -0.5547,0.0257 -0.2649,0.3269 0.2243,0.2324 0.2141,0.7223 0.1418,0.9777 -0.2996,1.0625 -2.2761,1.7528 -3.214,2.0415 0.3617,1.3406 0.1726,2.6925 -0.3797,3.9523 1.8789,-0.5398 3.668,-1.6414 4.4113,-3.5402 M 5.79805,5.89414 C 5.50273,9.10664 5.68477,14.9637 7.07852,17.9004 7.38984,17.8379 7.69141,17.743 8.0125,17.6871 8.0082,17.6359 7.98164,17.2594 7.98008,17.2254 7.69922,12.8883 9.40859,10.1383 11.9203,8.87617 11.6434,6.05508 8.07617,5.42578 5.79805,5.89414 M 14.6523,13.4891 C 15.2465,12.4828 14.3484,9.79258 13.1129,9.5668 9.88086,10.2578 7.91797,14.627 8.21523,17.6551 8.26133,17.6484 8.30742,17.6434 8.35234,17.6387 8.3625,17.5094 8.41875,17.2785 8.45156,17.1504 9.05859,14.773 12.0266,12.168 14.6523,13.4891"
       style="fill:#213769;fill-opacity:1;fill-rule:evenodd;stroke:none;stroke-width:0.1"
       id="path14" /><path
       d="m 39.8375,19.3367 v 3.4207 l -1.0551,-0.0023 v 0.907 h 2.8973 v -0.9047 h -1.0492 v -3.4207 z m 28.6363,2.8543 v 1.2074 c -0.6984,0.6258 -1.6543,0.5352 -2.25,-0.2554 -0.3328,-0.4453 -0.4925,-1.027 -0.4925,-1.6438 0,-0.7238 0.2214,-1.382 0.6621,-1.8324 0.6117,-0.6285 1.4449,-0.6152 2.0804,-0.0555 v 1.0973 c -0.457,-0.5035 -1.2004,-0.8203 -1.675,-0.1602 -0.1777,0.2457 -0.266,0.5661 -0.266,0.9621 0,0.3938 0.0895,0.7188 0.268,0.9711 0.3957,0.5606 0.9922,0.4516 1.4187,0.0133 z m -9.6836,1.9387 0.2774,0.3621 -0.1953,0.2543 -0.4676,-0.6106 z M 47.3809,22.191 v 1.2074 c -0.7,0.6258 -1.6563,0.5368 -2.2504,-0.2554 -0.3332,-0.4457 -0.493,-1.027 -0.493,-1.6438 0,-0.7238 0.2219,-1.382 0.6617,-1.8324 0.6098,-0.625 1.4422,-0.618 2.0817,-0.0555 v 1.0973 c -0.4567,-0.5035 -1.202,-0.8203 -1.6758,-0.1602 -0.177,0.2457 -0.2656,0.5661 -0.2656,0.9621 0,0.3938 0.0898,0.7188 0.2679,0.9711 0.3953,0.5606 0.9918,0.4504 1.4176,0.0133 z m 16.4187,-0.8121 v 0.3582 h -1.4117 v -0.8789 h 0.6285 v -0.6289 c -0.1394,-0.0551 -0.2828,-0.0922 -0.4285,-0.0922 -0.6234,0 -1.0106,0.6043 -1.0106,1.3938 0,0.3882 0.0965,0.7129 0.293,0.9726 0.318,0.4227 0.8164,0.4961 1.2199,0.2465 0.1528,-0.0937 0.3051,-0.2422 0.4598,-0.4437 l 0.0848,1.0824 c -0.1633,0.1402 -0.3328,0.2449 -0.5106,0.3152 -0.6359,0.2527 -1.3656,0.0645 -1.8422,-0.5523 -0.3386,-0.4371 -0.5074,-0.9903 -0.5074,-1.6582 0,-1.3286 0.7383,-2.2985 1.7586,-2.2985 0.4395,0 0.8766,0.184 1.2664,0.4391 z m 0.666,-2.0422 h 0.793 v 4.3254 h -0.793 z m -9.4676,3.9649 v -3.9649 h 2.086 v 0.9278 h -1.2938 v 3.3976 h -0.7933 z m -7.0835,0 v -3.9649 h 0.7312 v 2.3594 l 1.9379,-2.3594 h 0.2047 v 4.3254 h -0.7309 v -2.3844 l -1.9523,2.3844 -0.1922,0.0027 z m -5.7379,0 v -3.9649 h 2.0629 v 0.9098 h -1.2942 v 0.8551 h 0.7453 v 0.8867 h -0.7453 v 0.7816 h 1.2758 v 0.8922 H 42.1746 Z M 51.2,21.4992 c 0,1.2594 0.7191,2.3035 1.6934,2.3035 0.9871,0 1.6921,-1.0441 1.6921,-2.3035 0,-1.2515 -0.705,-2.3043 -1.6921,-2.3043 -0.9743,0 -1.6934,1.061 -1.6934,2.3043 m 0.816,0 c 0,-0.6683 0.3242,-1.325 0.8774,-1.325 0.557,0 0.8761,0.652 0.8761,1.325 0,0.6735 -0.3175,1.3321 -0.8761,1.3321 -0.5567,0 -0.8774,-0.6614 -0.8774,-1.3321 m 5.0278,0 c 0,0.3207 0.0421,0.6196 0.1273,0.8992 0.2535,0.8426 0.8676,1.4043 1.5652,1.4043 0.9953,0 1.6922,-1.0558 1.6922,-2.3035 0,-1.2617 -0.7148,-2.3043 -1.6922,-2.3043 -0.9812,0 -1.6925,1.0696 -1.6925,2.3043 m 0.8156,0 c 0,-0.6683 0.323,-1.325 0.8769,-1.325 0.5571,0 0.877,0.652 0.877,1.325 0,0.6735 -0.318,1.3321 -0.877,1.3321 -0.5574,0 -0.8769,-0.6614 -0.8769,-1.3321 m 12.5488,2.3035 c 0.691,0 1.3188,-0.5593 1.5676,-1.3992 0.0836,-0.2785 0.125,-0.5808 0.125,-0.9043 0,-1.25 -0.7051,-2.3043 -1.6926,-2.3043 -0.9777,0 -1.6898,1.0641 -1.6918,2.2969 -0.0027,1.2457 0.7035,2.3109 1.6918,2.3109 m -0.8769,-2.3035 c 0,-0.6683 0.3238,-1.325 0.8769,-1.325 0.5586,0 0.877,0.6508 0.877,1.325 0,0.6735 -0.3172,1.3321 -0.877,1.3321 -0.5566,0 -0.8769,-0.6614 -0.8769,-1.3321"
       style="fill:#213769;fill-opacity:1;fill-rule:evenodd;stroke:none;stroke-width:0.1"
       id="path16" /><path
       d="m 78.1773,15.7691 c -0.4476,0.434 -1.073,0.5434 -1.4878,-0.0132 -0.375,-0.5008 -0.3832,-1.4243 -0.0028,-1.9219 0.4957,-0.6524 1.2778,-0.3418 1.7586,0.1594 v -1.0899 c -0.6676,-0.5558 -1.5418,-0.568 -2.1836,0.0555 -0.8554,0.8269 -0.9324,2.4965 -0.1789,3.4535 0.625,0.7855 1.6281,0.8746 2.3625,0.2539 v -1.1996 z m -9.0714,1.4426 0.1679,0.2067 -0.2043,0.2527 -0.3726,-0.4594 z m 5.248,-0.6414 v -3.9402 h 0.8316 v 4.2972 h -0.8312 z m -2.7543,-1.7176 -1.2519,-2.2226 h 0.9101 l 0.8027,1.4586 0.8458,-1.4586 h 1.0238 l -1.3731,2.3121 1.1219,1.9851 h -0.9047 l -0.6758,-1.2269 -0.7183,1.2269 h -0.8047 z m -3.7152,1.7176 v -3.9402 h 2.1652 v 0.9043 h -1.3582 v 0.8496 h 0.8176 v 0.8805 h -0.8176 v 0.7769 h 1.3387 v 0.8859 h -2.1453 z m -3.7766,0.3574 -0.7133,-4.2976 h 0.7414 l 0.3063,1.9918 0.9203,-1.9918 h 0.2125 l 0.8617,1.9633 0.2957,-1.9633 h 0.7903 l -0.7051,4.2972 h -0.1473 l -1.1781,-2.6582 -1.2492,2.6582 z m 15.4774,-2.1484 c 0,-0.6645 0.339,-1.3176 0.9195,-1.3176 0.5855,0 0.9203,0.6477 0.9203,1.3176 0,0.6687 -0.334,1.3227 -0.9203,1.3227 -0.5836,0 -0.9195,-0.6571 -0.9195,-1.3227 m -0.8563,0 c 0,1.2324 0.7391,2.2883 1.7758,2.2883 1.0449,0 1.7766,-1.0496 1.7766,-2.2883 0,-1.2551 -0.7508,-2.2883 -1.7766,-2.2883 -1.0301,0 -1.7758,1.0602 -1.7758,2.2883"
       style="fill:#213769;fill-opacity:1;fill-rule:evenodd;stroke:none;stroke-width:0.1"
       id="path18" /><path
       d="m 55.6977,16.6305 v -3.92 h 0.9214 c 0.434,0 0.8305,0.05 1.2145,0.3215 0.559,0.3973 0.8555,1.0172 0.8555,1.8153 0,0.6632 -0.1836,1.1851 -0.5493,1.566 -0.3668,0.3808 -0.875,0.5719 -1.5207,0.5719 h -0.9207 z m 3.455,0 v -3.92 h 2.1532 v 0.9 h -1.3508 v 0.8446 h 0.8785 v 0.8762 h -0.8785 v 0.773 h 1.332 v 0.8809 c -0.8012,0 -1.3336,-0.0039 -2.1336,-0.0039 z m -8.1476,-3.92 h 2.1785 v 0.918 h -1.3504 v 3.3567 h -0.8273 z m -3.8078,0 h 0.8336 l 0.2234,0.6223 h 1.4062 l 0.2204,-0.6223 h 0.8656 l -1.6766,4.2747 h -0.1578 z m 1.2968,1.3575 0.4618,1.3394 0.4496,-1.3394 z m -4.5457,2.5625 v -3.92 h 0.7625 v 2.3317 l 2.0118,-2.3172 h 0.2253 v 4.2602 h -0.7632 v -2.3563 l -2.0383,2.3563 h -0.1973 z m -5.1879,0 v -3.92 h 0.8266 v 4.2747 h -0.8266 z m -0.9531,-0.7981 c -0.4453,0.4328 -1.0676,0.5406 -1.4812,-0.0133 -0.1864,-0.2488 -0.2793,-0.5695 -0.2793,-0.9609 0,-0.3906 0.0918,-0.707 0.2773,-0.9512 0.4949,-0.6504 1.2719,-0.3386 1.7488,0.1602 v -1.0844 c -0.6667,-0.5562 -1.5359,-0.5629 -2.1726,0.0543 -0.459,0.4461 -0.6902,1.0953 -0.6902,1.8102 0,0.6105 0.1668,1.1851 0.5132,1.625 0.6243,0.7855 1.6239,0.8672 2.3496,0.2531 V 15.532 Z m -5.9558,-3.1219 h 0.8328 l 0.2246,0.6223 h 1.4062 l 0.2188,-0.6223 h 0.8668 l -1.6778,4.2747 h -0.1578 z m 1.2968,1.3575 0.4614,1.3394 0.4496,-1.3394 z m -4.5461,-1.3575 0.0032,4.2747 h 0.1957 l 2.0375,-2.3563 v 2.3563 h 0.764 V 12.7105 H 31.377 l -2.011,2.3317 v -2.3317 z m 11.4633,2.1368 c 0,1.2449 0.7496,2.2777 1.7668,2.2777 1.0403,0 1.7668,-1.043 1.7668,-2.2777 0,-1.2356 -0.7359,-2.2762 -1.7668,-2.2762 -1.0097,0 -1.7668,1.0406 -1.7668,2.2762 m 0.8512,0 c 0,-0.6598 0.3387,-1.3098 0.9156,-1.3098 0.5821,0 0.9149,0.6457 0.9149,1.3098 0,0.6652 -0.3313,1.3175 -0.9149,1.3175 -0.5808,0 -0.9156,-0.6531 -0.9156,-1.3175 m 15.5988,-1.2188 v 2.4445 h 0.1817 c 0.3613,0 0.6453,-0.1078 0.8484,-0.3261 0.2043,-0.2188 0.3066,-0.5168 0.3066,-0.8996 0,-0.3805 -0.1023,-0.6793 -0.3066,-0.8953 -0.2031,-0.2153 -0.4871,-0.3235 -0.8484,-0.3235 h -0.1817"
       style="fill:#213769;fill-opacity:1;fill-rule:evenodd;stroke:none;stroke-width:0.1"
       id="path20" /></g></svg>
